<svg width="177" height="195" viewBox="0 0 177 195" fill="none" xmlns="http://www.w3.org/2000/svg">
<path d="M88.3006 176.475V142.275C52.0516 142.275 23.9136 106.375 37.8324 68.2749C42.9393 54.1749 54.2546 42.8749 68.3737 37.7749C106.525 23.9749 142.474 51.9749 142.474 88.1749H176.62C176.62 30.4749 120.744 -14.525 60.1626 4.37495C33.7268 12.675 12.5983 33.675 4.38719 60.075C-14.5384 120.675 30.4224 176.475 88.3006 176.475Z" fill="#FFFDFD"/>
<path d="M96 137H122V109H96V137Z" fill="#89BBF7"/>
<path d="M96 177H122V143H96V177Z" fill="#F59E6D"/>
<path d="M96 195H122V183H96V195Z" fill="#FFFDFD"/>
<path d="M120 97.1538L140.851 114.829L148.611 105.675L127.759 88L120 97.1538Z" fill="#FFFDFD"/>
</svg>
