<?xml version="1.0" encoding="UTF-8" standalone="no"?>
<svg
   xmlns:dc="http://purl.org/dc/elements/1.1/"
   xmlns:cc="http://creativecommons.org/ns#"
   xmlns:rdf="http://www.w3.org/1999/02/22-rdf-syntax-ns#"
   xmlns:svg="http://www.w3.org/2000/svg"
   xmlns="http://www.w3.org/2000/svg"
   xmlns:sodipodi="http://sodipodi.sourceforge.net/DTD/sodipodi-0.dtd"
   xmlns:inkscape="http://www.inkscape.org/namespaces/inkscape"
   viewBox="0 0 772.46 275.33"
   version="1.1"
   id="svg316"
   sodipodi:docname="background.svg"
   inkscape:version="0.92.4 (f8dce91, 2019-08-02)">
  <metadata
     id="metadata322">
    <rdf:RDF>
      <cc:Work
         rdf:about="">
        <dc:format>image/svg+xml</dc:format>
        <dc:type
           rdf:resource="http://purl.org/dc/dcmitype/StillImage" />
      </cc:Work>
    </rdf:RDF>
  </metadata>
  <defs
     id="defs320">
    <inkscape:perspective
       sodipodi:type="inkscape:persp3d"
       inkscape:vp_x="-8.1768219 : 134.39426 : 1"
       inkscape:vp_y="0 : 999.99995 : 0"
       inkscape:vp_z="764.2832 : 134.39426 : 1"
       inkscape:persp3d-origin="378.05319 : 88.505934 : 1"
       id="perspective4057" />
    <inkscape:perspective
       sodipodi:type="inkscape:persp3d"
       inkscape:vp_x="0 : 150.38515 : 1"
       inkscape:vp_y="0 : 1000 : 0"
       inkscape:vp_z="772.46 : 150.38515 : 1"
       inkscape:persp3d-origin="386.23 : 104.49682 : 1"
       id="perspective4027" />
  </defs>
  <sodipodi:namedview
     pagecolor="#ffffff"
     bordercolor="#666666"
     borderopacity="1"
     objecttolerance="10"
     gridtolerance="10"
     guidetolerance="10"
     inkscape:pageopacity="0"
     inkscape:pageshadow="2"
     inkscape:window-width="1366"
     inkscape:window-height="731"
     id="namedview318"
     showgrid="false"
     inkscape:zoom="0.6114845"
     inkscape:cx="298.92557"
     inkscape:cy="94.825592"
     inkscape:window-x="0"
     inkscape:window-y="0"
     inkscape:window-maximized="1"
     inkscape:current-layer="svg316" />
  <path
     d="m375.3 215.33-34 33 3 4.67 2.91.33 32.09-35.33z"
     fill="#d1d5da"
     id="path2" />
  <path
     d="m365.3 262.33-7.34-1.33-1.5-3.67 44.34-40-.84 7.34z"
     fill="#3d3d3d"
     id="path4" />
  <path
     d="m378.71 215.08-34 33.25 2.5 5 34.75-35z"
     fill="#959da4"
     id="path6" />
  <path
     d="m356.46 257.33 8 1 27.25-26.5-6-2.5z"
     fill="#586069"
     id="path8" />
  <path
     d="m388.07 210.68-29.56 26.82 11.25 9.5 33.14-33.1c-4.43-3.2-12.29-5.21-14.83-3.22z"
     fill="#6a737d"
     id="path10" />
  <path
     d="m402.9 213.9-33.14 33.1 4.69 4c13-9 20.53-23.23 29.87-36-.41-.36-.83-.71-1.28-1.05a.71.71 0 0 1 -.14-.05z"
     fill="#586069"
     id="path12" />
  <path
     d="m404.32 215.05c-9.32 12.73-16.84 26.95-29.87 35.95l6.45 5.47 26.83-30.31a3 3 0 0 0 .22-.28c1.98-2.66.34-7.29-3.63-10.83z"
     fill="#6a737d"
     id="path14" />
  <path
     d="m358.51 237.5c3.43-2.69 10.23-1.66 16.11 2.7 6.55 4.85 9.49 12 6.57 15.91-.09.13-.19.25-.29.37-3.12 3.52-10.51 2.68-16.84-2-6.55-4.85-9.49-12-6.57-15.91a5.39 5.39 0 0 1 1.02-1.07z"
     fill="#959da4"
     id="path16" />
  <path
     d="m423 204.43-29.56 17.15 3.25 20.25 27.75 13 .6-.74c-3.61-15.61-5.8-34.09-2.04-49.66z"
     fill="#dca82d"
     id="path18" />
  <path
     d="m469.72 177.33-46.72 27.1c-3.79 15.56-1.6 34 2 49.66l45.65-56.51z"
     fill="#b18621"
     id="path20" />
  <path
     d="m373.8 242.16c-4.41-3.27-9.5-4-12.07-2a4.06 4.06 0 0 0 -.77.78c-1.51 2-.93 5.2 1.18 8.16a29.5 29.5 0 0 0 14.18-4.66 17.83 17.83 0 0 0 -2.52-2.28z"
     id="path22" />
  <path
     d="m376.32 244.42a29.5 29.5 0 0 1 -14.18 4.66 16.84 16.84 0 0 0 3.74 3.76c4.75 3.52 10.28 4.15 12.62 1.51l.22-.27c1.77-2.39.67-6.32-2.4-9.66z"
     fill="#6a737d"
     id="path24" />
  <path
     d="m411.77 174.08c-1.48-.54-3-1.08-4.44-1.6l-11.9 8.7 7.09 2.69c2.95-3.39 6.05-6.64 9.25-9.79z"
     fill="#ffdd6a"
     id="path26" />
  <path
     d="m441.25 198 8.5-9.29c-4.37-1.55-8.71-3.22-13.05-4.92q-5.32 4.42-10.61 8.86c5.03 1.8 10.07 3.6 15.16 5.35z"
     fill="#ffe888"
     id="path28" />
  <path
     d="m402.52 183.87c7.84 3 15.68 5.9 23.57 8.76q5.3-4.44 10.61-8.86c-8.3-3.24-16.57-6.63-24.93-9.69-3.2 3.15-6.3 6.4-9.25 9.79zm4.81-11.39c-2.61-.91-5.23-1.79-7.87-2.61l-11.29 8.57 7.26 2.74z"
     fill="#ffdd6a"
     id="path30" />
  <path
     d="m432.26 153.77-.79-.19-8.25-1.75-23.76 18c2.64.82 5.26 1.7 7.87 2.61 8.39-6.09 16.75-12.26 24.93-18.67z"
     fill="#ffe888"
     id="path32" />
  <path
     d="m433.86 154.14-1.6-.37c-8.18 6.41-16.54 12.58-24.93 18.71 1.48.52 3 1.06 4.44 1.6 7.05-6.95 14.59-13.45 22.09-19.94z"
     fill="#ffdd6a"
     id="path34" />
  <path
     d="m449.75 188.69 22.72-24.86c-1.63-.57-4.72-1.42-8.5-2.41q-13.8 11.13-27.27 22.35c4.3 1.7 8.68 3.37 13.05 4.92z"
     fill="#c6e2fd"
     id="path36" />
  <path
     d="m411.77 174.08c8.36 3.06 16.63 6.45 24.93 9.69q13.5-11.22 27.27-22.35c-9.87-2.56-24.44-6-30.11-7.28-7.5 6.49-15.04 12.99-22.09 19.94z"
     fill="#ffe888"
     id="path38" />
  <path
     d="m433.5 206.47 7.75-8.49c-5.09-1.73-10.13-3.53-15.16-5.35l-8 6.71c5.19 2.28 10.3 4.66 15.41 7.13zm-37.03-15.14a171 171 0 0 1 21.62 8l8-6.71c-7.89-2.86-15.73-5.8-23.57-8.76-2.1 2.42-4.13 4.91-6.05 7.47z"
     fill="#ffdd6a"
     id="path40" />
  <path
     d="m424.72 216.06 8.78-9.59c-5.11-2.43-10.22-4.85-15.41-7.13l-9.94 8.4c5.49 2.83 11 5.62 16.57 8.32z"
     fill="#c6e2fd"
     id="path42" />
  <path
     d="m402.52 183.87-7.09-2.69c-5.26 3.85-10.5 7.72-15.69 11.67 9.48 4.94 18.9 10 28.41 14.89l9.94-8.4a171 171 0 0 0 -21.62-8c1.92-2.57 3.95-5.06 6.05-7.47z"
     fill="#ffdd6a"
     id="path44" />
  <path
     d="m388.17 178.44-14.7 11.16 6.27 3.25c5.19-3.95 10.43-7.82 15.69-11.67z"
     fill="#c6e2fd"
     id="path46" />
  <path
     d="m365.24 195.85c-.85.52-3.2 2.4-3.2 2.4l7.44 2.59q5.08-4.07 10.26-8l-6.27-3.25zm56.76 23.23 2.75-3c-5.57-2.7-11.08-5.49-16.57-8.32l-5.48 4.64z"
     fill="#ffdd6a"
     id="path48" />
  <path
     d="m369.48 200.84 33.19 11.54 5.48-4.64c-9.51-4.91-18.93-10-28.41-14.89q-5.17 3.93-10.26 7.99z"
     fill="#ffe888"
     id="path50" />
  <path
     d="m362 198.25c0 2.74.64 13.71.93 16.83 6.56 2.77 53.88 19.5 60.77 22q-1.25-9-1.84-18z"
     fill="#fac237"
     id="path52" />
  <path
     d="m473 181.58c0-5.64.33-11-.5-17.75l-50.5 55.25h-.07q.59 9 1.84 18l.23.07c5.4-5.44 46.22-51.57 49-55.57z"
     fill="#ffe888"
     id="path54" />
  <path
     d="m426.44 194.57-.31-14.93-30.62-.28-4.31 14.78a1.43 1.43 0 0 0 -.07.46c0 2.91 7.91 5.27 17.66 5.27s17.65-2.36 17.65-5.27z"
     fill="#e55b22"
     opacity=".3"
     id="path56" />
  <path
     d="m426.13 179.64c0 2.21-6.86 4-15.33 4s-15.33-1.79-15.33-4a1.06 1.06 0 0 1 0-.31c.6-2.07 7.22-3.69 15.29-3.69 8.48.03 15.33 1.81 15.37 4z"
     fill="#ffd050"
     id="path58" />
  <path
     d="m434 170.32.12-6.7 12.14-.13 1.71 6.64a.76.76 0 0 1 0 .21c0 1.3-3.14 2.36-7 2.36s-7-1.06-7-2.36z"
     fill="#dca82d"
     id="path60" />
  <path
     d="m434.09 163.62c0 1 2.72 1.8 6.08 1.8s6.08-.81 6.08-1.8a.68.68 0 0 0 0-.14c-.24-.93-2.86-1.66-6.06-1.66-3.37.01-6.08.81-6.1 1.8z"
     fill="#ffd050"
     id="path62" />
  <path
     d="m495.31 192-28.5 11.4.41 8.18 35.5 44.25.75-.39c.93-21.15-1.1-42.29-8.16-63.44z"
     fill="#014486"
     id="path64" />
  <path
     d="m609.47 190.33-40-28-74.16 29.67c7.06 21.15 9.09 42.29 8.16 63.44l102.25-53.36z"
     fill="#0260c1"
     id="path66" />
  <path
     d="m612.97 208.33-11-6.25-90.51 45-2 4.75 8.51 14.75 61.77-34.13-3.34-5.8 3.63-1.75 2.92 5.78 25.52-14.1z"
     fill="#71603b"
     id="path68" />
  <g
     fill="#77bafc"
     id="g92">
    <path
       d="m466.81 203.4c.32.42 1.58 1.93 3.45 4.14 2.18-1.13 4.36-2.24 6.55-3.35q-2.08-2-4.23-4.05c-2.18 1.16-4.12 2.25-5.77 3.26z"
       id="path70" />
    <path
       d="m472.58 200.14q2.15 2 4.23 4.05c1.4-.7 2.81-1.38 4.21-2.07q-2.13-2.09-4.33-4.12-2.17 1.11-4.11 2.14z"
       id="path72" />
    <path
       d="m476.69 198q2.21 2 4.33 4.12 6.68-3.31 13.41-6.48-2.52-1.89-5.1-3.71c-4.6 2.12-8.87 4.17-12.64 6.07z"
       id="path74" />
    <path
       d="m489.33 191.93q2.58 1.81 5.1 3.71c1.9-.9 3.81-1.77 5.71-2.66q-2.16-2-4.36-4c-2.2 1.02-4.36 2.02-6.45 2.95z"
       id="path76" />
    <path
       d="m495.78 189q2.21 2 4.36 4 8.6-4 17.28-7.8c-1.16-1.37-2.3-2.74-3.44-4.11-6.21 2.62-12.37 5.3-18.2 7.91zm18.22-7.93c1.14 1.37 2.28 2.74 3.44 4.11.68-.31 1.37-.6 2.06-.9-1.19-1.33-2.34-2.7-3.51-4.05z"
       id="path78" />
    <path
       d="m516 180.23c1.17 1.35 2.32 2.72 3.51 4.05q9.06-4 18.2-7.82-1.62-2-3.23-3.92c-5.98 2.46-12.24 5.04-18.48 7.69z"
       id="path80" />
    <path
       d="m536.68 171.63-2.23.91q1.6 2 3.23 3.92l2.63-1.09q-1.8-1.87-3.63-3.74z"
       id="path82" />
    <path
       d="m536.68 171.63q1.83 1.86 3.63 3.74 7.55-3.18 15.14-6.29-2.07-1.68-4.12-3.38c-4.45 1.79-9.41 3.79-14.65 5.93z"
       id="path84" />
    <path
       d="m551.33 165.7q2.05 1.7 4.12 3.38l2.84-1.15-4.11-3.37z"
       id="path86" />
    <path
       d="m571.72 157.59c-.83.36-7.66 3-17.54 7l4.11 3.37c5.73-2.35 11.46-4.7 17.22-7zm-101.46 49.95c1.29 1.53 2.88 3.4 4.66 5.49l7.07-3.71c-1.71-1.72-3.43-3.43-5.18-5.13-2.19 1.11-4.37 2.22-6.55 3.35z"
       id="path88" />
    <path
       d="m476.81 204.19c1.75 1.7 3.47 3.41 5.18 5.13l4.09-2.13c-1.66-1.72-3.35-3.4-5.06-5.07-1.4.69-2.81 1.37-4.21 2.07z"
       id="path90" />
  </g>
  <path
     d="m481 202.12c1.71 1.67 3.4 3.35 5.06 5.07q7-3.63 13.93-7.22-2.76-2.21-5.58-4.33-6.71 3.18-13.41 6.48z"
     fill="#036ad2"
     id="path94" />
  <path
     d="m494.43 195.64q2.82 2.13 5.58 4.33l4.88-2.49c-1.57-1.52-3.16-3-4.75-4.5-1.9.89-3.81 1.76-5.71 2.66z"
     fill="#77bafc"
     id="path96" />
  <path
     d="m500.14 193c1.59 1.49 3.18 3 4.75 4.5q8-4.09 16.14-8.06c-1.21-1.41-2.42-2.83-3.61-4.24q-8.68 3.8-17.28 7.8zm17.28-7.82c1.19 1.41 2.4 2.83 3.61 4.24l2.17-1c-1.24-1.36-2.5-2.71-3.72-4.09-.69.25-1.38.54-2.06.85z"
     fill="#77bafc"
     id="path98" />
  <path
     d="m519.48 184.28c1.22 1.38 2.48 2.73 3.72 4.09q8.7-4.23 17.52-8.25l-3-3.66q-9.17 3.86-18.24 7.82z"
     fill="#178cfa"
     id="path100" />
  <path
     d="m540.31 175.37c1.1 1.15 2.21 2.29 3.3 3.44q7.71-3.47 15.54-6.72l-3.7-3q-7.59 3.11-15.14 6.28z"
     fill="#77bafc"
     id="path102" />
  <path
     d="m575.51 160.93c-5.76 2.3-11.49 4.65-17.22 7l3.68 3c5.71-2.34 11.46-4.59 17.29-6.71z"
     fill="#036ad2"
     id="path104" />
  <path
     d="m555.45 169.08 3.7 3 2.82-1.15-3.68-3zm-15.14 6.29-2.63 1.09 3 3.66 2.89-1.31c-1.05-1.15-2.16-2.29-3.26-3.44zm-65.39 37.63c2 2.38 4.29 5.05 6.65 7.81l8.05-3.66q-3.76-4-7.63-7.86z"
     fill="#77bafc"
     id="path106" />
  <path
     d="m482 209.32q3.87 3.9 7.63 7.86l4-1.84q-3.72-4.14-7.57-8.15zm18-9.32q4.9 3.93 9.64 8.06l4.07-1.86c-2.93-2.93-5.86-5.84-8.83-8.69z"
     fill="#77bafc"
     id="path108" />
  <path
     d="m504.89 197.48c3 2.85 5.9 5.76 8.83 8.69l15.55-7.11c-2.74-3.23-5.5-6.43-8.24-9.64q-8.1 3.96-16.14 8.06z"
     fill="#036ad2"
     id="path110" />
  <path
     d="m521 189.42c2.74 3.21 5.5 6.41 8.24 9.64l2.77-1.27q-4.5-4.64-8.84-9.42z"
     fill="#dca82d"
     id="path112" />
  <path
     d="m523.2 188.37q4.35 4.77 8.84 9.42l16.96-7.79q-4.12-5-8.26-9.92-8.84 4.06-17.54 8.29z"
     fill="#77bafc"
     id="path114" />
  <path
     d="m540.72 180.12q4.13 4.95 8.26 9.92l3.59-1.63c-3-3.21-5.93-6.41-9-9.6z"
     fill="#daeefe"
     id="path116" />
  <path
     d="m543.61 178.81c3 3.19 6 6.39 9 9.6l17-7.77c-3.45-2.87-6.94-5.71-10.43-8.55q-7.86 3.25-15.57 6.72z"
     fill="#036ad2"
     id="path118" />
  <path
     d="m559.15 172.09c3.49 2.84 7 5.68 10.43 8.55l2.64-1.2c-3.4-2.87-6.83-5.7-10.25-8.5z"
     fill="#77bafc"
     id="path120" />
  <path
     d="m579.26 164.23c-5.83 2.12-11.58 4.37-17.29 6.71 3.42 2.8 6.85 5.63 10.25 8.5l16-7.29z"
     fill="#178cfa"
     id="path122" />
  <path
     d="m486.08 207.19q3.85 4 7.57 8.15l16-7.31q-4.74-4.12-9.64-8.06-7.01 3.59-13.93 7.22z"
     fill="#77bafc"
     id="path124" />
  <path
     d="m481.57 220.84c2.87 3.36 5.87 6.87 8.73 10.2q4-2.28 8-4.57-4.29-4.66-8.68-9.29z"
     fill="#036ad2"
     id="path126" />
  <path
     d="m489.62 217.18q4.39 4.62 8.68 9.29l3.35-1.93c-2.64-3.1-5.29-6.17-8-9.2z"
     fill="#77bafc"
     id="path128" />
  <path
     d="m493.65 215.34c2.71 3 5.36 6.1 8 9.2l16.14-9.3c-2.7-2.43-5.4-4.84-8.14-7.21z"
     fill="#178cfa"
     id="path130" />
  <path
     d="m509.65 208c2.74 2.37 5.44 4.78 8.14 7.21l3.13-1.8q-3.58-3.65-7.2-7.27z"
     fill="#77bafc"
     id="path132" />
  <path
     d="m529.27 199.06q2.75 3.24 5.45 6.53l3.21-1.8c-2-2-3.95-4-5.89-6z"
     fill="#dca82d"
     id="path134" />
  <path
     d="m532 197.79c1.94 2 3.91 4 5.89 6q7.67-4.29 15.39-8.46-2.16-2.66-4.34-5.29z"
     fill="#178cfa"
     id="path136" />
  <path
     d="m549 190q2.17 2.64 4.34 5.29l3.76-2q-2.25-2.47-4.51-4.92z"
     fill="#f6f8fa"
     opacity=".3"
     id="path138" />
  <path
     d="m552.57 188.41q2.26 2.44 4.51 4.92 8.5-4.52 17.13-8.79c-1.53-1.31-3.08-2.61-4.63-3.9z"
     fill="#178cfa"
     id="path140" />
  <path
     d="m569.58 180.64c1.55 1.29 3.1 2.59 4.63 3.9l2.54-1.23q-2.25-2-4.53-3.87z"
     fill="#77bafc"
     id="path142" />
  <path
     d="m588.26 172.15-16 7.29q2.28 1.92 4.53 3.87c5.22-2.54 10.48-5 15.81-7.38z"
     fill="#77bafc"
     id="path144" />
  <path
     d="m513.72 206.17q3.62 3.62 7.2 7.27 6.89-4 13.8-7.85-2.7-3.28-5.45-6.53z"
     fill="#daeefe"
     id="path146" />
  <path
     d="m498.3 226.47 3.5 3.81 3.31-1.62q-1.73-2.07-3.46-4.12z"
     fill="#dca82d"
     id="path148" />
  <path
     d="m501.65 224.54q1.74 2.06 3.46 4.12 9-4.38 18.12-8.5-2.72-2.47-5.44-4.92zm19.27-11.1c1.77 1.79 3.54 3.59 5.32 5.38q7-3.15 14.07-6.2-2.74-3.56-5.59-7-6.91 3.87-13.8 7.82z"
     fill="#77bafc"
     id="path150" />
  <path
     d="m534.72 205.59q2.84 3.48 5.59 7l4.56-2q-3.5-3.42-6.94-6.87z"
     fill="#dca82d"
     id="path152" />
  <path
     d="m537.93 203.79q3.45 3.45 6.94 6.87 7.7-3.32 15.39-6.58-3.4-4.43-6.94-8.75-7.73 4.17-15.39 8.46z"
     fill="#77bafc"
     id="path154" />
  <path
     d="m553.32 195.33q3.52 4.33 6.94 8.75l4.71-2c-2.63-2.93-5.25-5.85-7.89-8.74z"
     fill="#daeefe"
     id="path156" />
  <path
     d="m557.08 193.33c2.64 2.89 5.26 5.81 7.89 8.74q9.79-4.17 19.54-8.4c-3.36-3.12-6.8-6.15-10.3-9.13q-8.64 4.26-17.13 8.79z"
     fill="#77bafc"
     id="path158" />
  <path
     d="m574.21 184.54c3.5 3 6.94 6 10.3 9.13l2.52-1.12c-3.36-3.16-6.8-6.23-10.28-9.24z"
     fill="#77bafc"
     id="path160" />
  <path
     d="m597.36 180.15-4.8-4.22c-5.33 2.36-10.59 4.84-15.81 7.38 3.48 3 6.92 6.08 10.28 9.24 5.48-2.4 10.94-4.83 16.36-7.33z"
     fill="#dca82d"
     id="path162" />
  <path
     d="m517.79 215.24q2.73 2.44 5.44 4.92l3-1.34c-1.78-1.79-3.55-3.59-5.32-5.38zm-27.49 15.76 3 3.52q4.21-2.17 8.47-4.28l-3.5-3.81q-3.96 2.34-7.97 4.57z"
     fill="#77bafc"
     id="path164" />
  <path
     d="m493.33 234.56c4.94 5.75 9.1 10.55 10.8 12.44l8.64-4.63c-3.66-4-7.3-8.07-11-12.09q-4.23 2.12-8.44 4.28z"
     fill="#036ad2"
     id="path166" />
  <path
     d="m501.8 230.28c3.67 4 7.31 8.06 11 12.09l2.54-1.37c-3.4-4.13-6.78-8.25-10.2-12.34z"
     fill="#daeefe"
     id="path168" />
  <path
     d="m505.11 228.66c3.42 4.09 6.8 8.21 10.2 12.34l19.46-10.44c-3.88-3.44-7.71-6.92-11.54-10.4q-9.1 4.13-18.12 8.5z"
     fill="#178cfa"
     id="path170" />
  <path
     d="m526.24 218.82-3 1.34c3.83 3.48 7.66 7 11.54 10.4l2.11-1.13c-3.59-3.5-7.13-7.05-10.65-10.61z"
     fill="#77bafc"
     id="path172" />
  <path
     d="m526.24 218.82c3.52 3.56 7.06 7.11 10.64 10.61l11.21-6c-2.46-3.68-5.07-7.27-7.78-10.79q-7.05 3.04-14.07 6.18z"
     fill="#036ad2"
     id="path174" />
  <path
     d="m540.31 212.62c2.71 3.52 5.32 7.11 7.78 10.79l6.44-3.45q-4.86-4.62-9.66-9.3z"
     fill="#77bafc"
     id="path176" />
  <path
     d="m544.87 210.66q4.8 4.68 9.66 9.3l12.54-6.73c-2.21-3.1-4.49-6.15-6.81-9.15q-7.69 3.27-15.39 6.58zm42.13-18.11-2.52 1.12c2.29 2.13 4.55 4.31 6.75 6.54l2.34-1.27q-3.19-3.25-6.57-6.39z"
     fill="#77bafc"
     id="path178" />
  <path
     d="m603.39 185.22c-5.42 2.5-10.88 4.93-16.36 7.33q3.35 3.13 6.57 6.39l15.87-8.61z"
     fill="#77bafc"
     id="path180" />
  <path
     d="m565 202.07q3.71 4.13 7.42 8.31l12.7-6.82 6.17-3.35c-2.2-2.23-4.46-4.41-6.75-6.54q-9.76 4.25-19.54 8.4z"
     fill="#036ad2"
     id="path182" />
  <path
     d="m560.26 204.08c2.32 3 4.6 6 6.81 9.15l5.32-2.85q-3.72-4.19-7.42-8.31z"
     fill="#77bafc"
     id="path184" />
  <path
     d="m511.47 247.08 7.75 11.75 5.44-2.77c-2.73-3.8-5.32-7.73-7.83-11.78zm11.33-5.93c2.19 4.06 4.33 8.34 6.69 12.46l11.29-5.74c-2.45-4.1-4.72-8.29-7.07-12.43z"
     fill="#fac237"
     id="path186" />
  <path
     d="m566.05 218.51-1.89 1c2.42 4.31 4.61 8.68 6.78 13l2.09-1.06c-2.52-4.29-4.94-8.56-6.98-12.94z"
     fill="#b18621"
     id="path188" />
  <path
     d="m580.36 211-14.31 7.49c2 4.38 4.46 8.65 7 13l4.69-2.39-3.75-3.5 5.25-3.5 4 4 5.83-3.48c-2.96-3.84-5.88-7.7-8.71-11.62z"
     fill="#fac237"
     id="path190" />
  <path
     d="m581.83 210.25-1.47.77c2.83 3.9 5.75 7.76 8.69 11.58l2.09-1.24a81 81 0 0 0 -9.31-11.11z"
     fill="#b18621"
     id="path192" />
  <path
     d="m593.42 204.19-11.59 6.06a81 81 0 0 1 9.31 11.11l11.25-6.72c-2.87-3.58-5.79-7.1-8.97-10.45z"
     fill="#fac237"
     id="path194" />
  <path
     d="m594.93 203.4-1.51.79c3.18 3.35 6.1 6.87 9 10.45l3-1.8c-3.42-3.25-6.92-6.41-10.49-9.44z"
     fill="#b18621"
     id="path196" />
  <path
     d="m602.22 199.58-7.29 3.82c3.57 3 7.07 6.19 10.49 9.44l7.55-4.51z"
     fill="#fac237"
     id="path198" />
  <path
     d="m551.2 226.28-2.78 1.46c2.86 3.91 5.75 7.87 8.7 11.82l2.28-1.16c-2.86-3.92-5.67-7.87-8.2-12.12z"
     fill="#b18621"
     id="path200" />
  <path
     d="m564.16 219.5-13 6.78c2.53 4.25 5.34 8.2 8.2 12.12l11.54-5.87c-2.13-4.35-4.32-8.72-6.74-13.03zm-15.74 8.24-12.82 6.71c2.19 4.16 4.53 8.38 7 12.47l14.47-7.36c-2.9-3.95-5.79-7.91-8.65-11.82z"
     fill="#fac237"
     id="path202" />
  <path
     d="m533.71 235.44c2.35 4.14 4.62 8.33 7.07 12.43l1.87-1c-2.52-4.09-4.86-8.31-7-12.47zm-13.32 6.97c2.38 4 4.87 8.07 7.32 12.1l1.78-.9c-2.36-4.12-4.5-8.4-6.69-12.46z"
     fill="#b18621"
     id="path204" />
  <path
     d="m520.39 242.41-3.56 1.87c2.51 4.05 5.1 8 7.83 11.78l3.05-1.55c-2.45-4.03-4.94-8.06-7.32-12.1z"
     fill="#b18621"
     id="path206" />
  <path
     d="m461.22 243.33 24.25-12.75"
     fill="none"
     stroke="#fac237"
     stroke-linecap="round"
     stroke-miterlimit="10"
     stroke-width="2"
     id="path208" />
  <path
     d="m483.59 235.44-.84.48a3 3 0 0 0 1.48 5.61 3.06 3.06 0 0 0 1.48-.39l1.57-.9c-.28-2.34-1.22-4.34-3.69-4.8z"
     fill="#ffcfaf"
     id="path210" />
  <path
     d="m491.57 234.35a3 3 0 0 0 -4.09-1.12l-2 1.16c3.33.37 3.49 2.7 3.28 5l1.73-1a3 3 0 0 0 1.08-4.04z"
     fill="#036ad2"
     id="path212" />
  <path
     d="m485.44 234.39-1.85 1.05c2.47.46 3.37 2.46 3.69 4.8l1.44-.82c.21-2.33.05-4.66-3.28-5.03z"
     fill="#fac237"
     id="path214" />
  <path
     d="m505.22 251.83 14.75 23"
     fill="none"
     stroke="#0260c1"
     stroke-linecap="round"
     stroke-miterlimit="10"
     id="path216" />
  <path
     d="m528 258.26 9.93 11.65"
     fill="none"
     stroke="#71603b"
     stroke-linecap="round"
     stroke-miterlimit="10"
     stroke-width="2"
     id="path218" />
  <path
     d="m382.05 79.83c-.07-1.47-.63-5-.58-6 9.61-2.66 13.58 1.42 15.33 3.5 4-1.25 20.36-5.51 24-7 2.12-10.08 13.42-8.46 15.62-4.87 2.55-.66 5.39-1.58 6.87-1.93a36.8 36.8 0 0 1 1.59 7.05c-1.81.5-4.81 1.22-5.91 1.46-.25 5.83-9.34 11.42-16.59 5-2.5.83-20.19 5.46-23 6.34.76 5.62-5.24 12.12-9.43 13.71-1-1.2-2.81-3.89-3.93-5.12 7.34-3.28 10.28-13.97-3.97-12.14zm48.25-12.66a3.66 3.66 0 1 0 3.62 3.65 3.64 3.64 0 0 0 -3.62-3.65z"
     fill="#959da4"
     id="path220" />
  <path
     d="m381.72 77.49c-.08-1.46-.64-5-.59-6 9.62-2.67 13.59 1.42 15.34 3.5 4-1.25 20.35-5.51 24-7 2.12-10.09 13.41-8.46 15.62-4.88 2.55-.65 5.38-1.57 6.87-1.92a36.63 36.63 0 0 1 1.59 7c-1.81.5-4.81 1.22-5.92 1.46-.25 5.83-9.33 11.41-16.58 5-2.5.83-20.19 5.46-23 6.33.76 5.63-5.24 12.13-9.43 13.72-1-1.2-2.81-3.89-3.94-5.12 7.32-3.22 10.32-13.91-3.96-12.09zm48.28-12.66a3.66 3.66 0 1 0 3.62 3.66 3.64 3.64 0 0 0 -3.62-3.66z"
     id="path222"
     fill="#d1d5da" />
  <path
     d="m585.22 85.08a14.57 14.57 0 0 1 -.1-1.7c0-12.75 16.69-7.82 22.34-23.68"
     fill="none"
     stroke="#f86324"
     stroke-miterlimit="10"
     stroke-width="2"
     id="path224" />
  <path
     d="m564.47 51.33c7.4-3.33 14.36-3.38 20.89-8.47"
     fill="none"
     stroke="#178cfa"
     stroke-miterlimit="10"
     stroke-width="3"
     id="path226" />
  <path
     d="m580.47 73.08c2.87-1.81 5.61-3 8.69-3 5.77 0 8.28 4 12.23 4 4.76 0 4.46-11.19 8.42-15.2"
     fill="none"
     stroke="#022f60"
     stroke-miterlimit="10"
     stroke-width="2"
     id="path228" />
  <path
     d="m601.43 42.47c-3.83-3-8.12-4-9.9-2.46l-15 13.34 14.11 12.14 15-13.34a2.06 2.06 0 0 0 .29-.3c1.57-1.99-.45-6.19-4.5-9.38z"
     fill="#494949"
     id="path230" />
  <path
     d="m581.14 41.67 30.4 25.31 36.69-36.21 1.07-7.94-31.71-10.83-37.96 23.67z"
     fill="#b18621"
     id="path232" />
  <path
     d="m599.62 44.82c-2.87-2.61-5.71-5.26-8.59-7.89l-4.86 3.85 9.83 7.7z"
     fill="#ffdd6a"
     id="path234" />
  <path
     d="m599.62 44.82-3.62 3.66 7.92 6.19q1.65-1.53 3.32-3c-2.57-2.27-5.11-4.55-7.62-6.85z"
     fill="#ffdd6a"
     id="path236" />
  <path
     d="m603.92 54.67 7.21 5.65 3-2.94c-2.34-1.87-4.62-3.8-6.88-5.75q-1.67 1.52-3.33 3.04z"
     fill="#ffdd6a"
     id="path238" />
  <path
     d="m591 36.93c-2.07-1.91-4.15-3.81-6.27-5.69l-5.13 4.43 6.54 5.11z"
     fill="#ffd050"
     id="path240" />
  <path
     d="m601 28.87c-2.58-1.69-5.22-3.32-7.92-4.84l-8.36 7.21c2.12 1.88 4.2 3.78 6.27 5.69q5.07-4.01 10.01-8.06z"
     fill="#ffd050"
     id="path242" />
  <path
     d="m607.24 51.63c2.26 1.95 4.54 3.88 6.88 5.75l10.47-10.28c-2-1.78-4.12-3.53-6.21-5.26q-5.62 4.81-11.14 9.79z"
     fill="#ffdd6a"
     id="path244" />
  <path
     d="m609.61 34.91q-5 4.92-10 9.91c2.51 2.3 5 4.58 7.62 6.81q5.5-5 11.14-9.79c-2.86-2.38-5.78-4.7-8.76-6.93z"
     fill="#ffd050"
     id="path246" />
  <path
     d="m609.61 34.91q-4.18-3.15-8.57-6-5 4.05-10 8.06c2.88 2.63 5.72 5.28 8.59 7.89q4.95-5.02 9.98-9.95z"
     fill="#ffdd6a"
     id="path248" />
  <path
     d="m611.93 20a310.77 310.77 0 0 0 -6.87-6.27l-11.94 10.27c2.7 1.52 5.34 3.15 7.92 4.84q5.46-4.39 10.89-8.84z"
     fill="#ffd050"
     id="path250" />
  <path
     d="m618.48 26.33c-2.16-2.14-4.33-4.26-6.55-6.33l-10.89 8.87q4.4 2.88 8.57 6 4.39-4.28 8.87-8.54z"
     fill="#dca82d"
     id="path252" />
  <path
     d="m618.48 26.33q-4.46 4.26-8.87 8.58c3 2.23 5.9 4.55 8.77 6.93q4.14-3.54 8.32-7c-2.7-2.9-5.43-5.73-8.22-8.51z"
     fill="#ffdd6a"
     id="path254" />
  <path
     d="m618.38 41.84c2.09 1.73 4.17 3.48 6.21 5.26l7-6.89q-2.42-2.73-4.91-5.39-4.15 3.48-8.3 7.02zm10.38-35.56-7.76-6.28-4.82 4.16q4.22 2.73 8.36 5.57 2.09-1.73 4.22-3.45z"
     fill="#ffdd6a"
     id="path256" />
  <path
     d="m634.75 11.11-6-4.83q-2.12 1.72-4.24 3.45c2.24 1.53 4.48 3.08 6.7 4.65 1.18-1.09 2.35-2.19 3.54-3.27z"
     fill="#ffdd6a"
     id="path258" />
  <path
     d="m634.75 11.11c-1.19 1.08-2.36 2.18-3.54 3.27q5.44 3.82 10.82 7.74l3.15-2.6z"
     fill="#ffdd6a"
     id="path260" />
  <path
     d="m642 22.12 4.6 3.34 2.67-2.63-4.12-3.31zm-17.49-12.39q-4.15-2.84-8.36-5.57l-5.25 4.53c2.56 2 5.18 3.88 7.83 5.75q2.88-2.37 5.78-4.71z"
     fill="#ffdd6a"
     id="path262" />
  <path
     d="m631.21 14.38a500.88 500.88 0 0 0 -6.7-4.65q-2.89 2.34-5.78 4.71c2.36 1.66 4.75 3.28 7.15 4.9q2.66-2.49 5.33-4.96zm5.48 12.16c1.75 1.17 3.51 2.33 5.26 3.51l4.68-4.59-4.63-3.34z"
     fill="#ffdd6a"
     id="path264" />
  <path
     d="m631.21 14.38q-2.67 2.47-5.33 5 5.39 3.61 10.81 7.2l5.31-4.46q-5.35-3.9-10.79-7.74zm-12.48.06c-2.65-1.87-5.27-3.78-7.83-5.75l-5.84 5c2.31 2 4.61 4.14 6.87 6.27zm7.15 4.9c-2.4-1.62-4.79-3.24-7.15-4.9l-6.8 5.56c2.22 2.07 4.39 4.19 6.55 6.33q3.68-3.51 7.4-6.99z"
     fill="#ffdd6a"
     id="path266" />
  <path
     d="m625.88 19.34q-3.72 3.48-7.4 7c2.79 2.78 5.54 5.61 8.22 8.49q5-4.16 10-8.28-5.42-3.61-10.82-7.21z"
     fill="#fffadf"
     id="path268" />
  <path
     d="m626.7 34.82q2.49 2.66 4.91 5.39l10.39-10.16c-1.75-1.18-3.51-2.34-5.26-3.51q-5.06 4.13-10.04 8.28z"
     fill="#ffdd6a"
     id="path270" />
  <path
     d="m576.53 53.35c1.78-1.59 6.07-.56 9.9 2.46 4.05 3.18 6.07 7.38 4.5 9.38a2.06 2.06 0 0 1 -.29.3c-1.78 1.58-6.06.55-9.89-2.46-4-3.19-6.07-7.39-4.5-9.38a2.68 2.68 0 0 1 .28-.3z"
     fill="#7e7e7e"
     id="path272" />
  <path
     d="m589.24 60.11a13.41 13.41 0 0 0 -3.3-3.68c-3.17-2.49-6.71-3.34-8.18-2a1.88 1.88 0 0 0 -.24.25c-.87 1.11-.4 3 1 5 3.32 1.53 6.97 1.12 10.72.43z"
     fill="#4b4b4b"
     id="path274" />
  <path
     d="m578.53 59.63a14.39 14.39 0 0 0 2.71 2.77c3.17 2.49 6.71 3.34 8.18 2a1.79 1.79 0 0 0 .23-.25c.74-.94.52-2.46-.41-4.08-3.75.73-7.4 1.14-10.71-.44z"
     fill="#686868"
     id="path276" />
  <g
     fill="none"
     stroke="#036ad2"
     stroke-miterlimit="10"
     stroke-width="2"
     id="g314">
    <circle
       cx="297.62"
       cy="125.87"
       r="64.42"
       id="circle278" />
    <path
       d="m216.72 170.08c-2.75-.25-54.85.71-61.85-.79-7.46-1.6-11.66-8.91-10.4-24 .33-4-1.84-7-8.72-6-10.67 1.55-23.53-1.58-12.62-15.66 9.21-11.89 25.15-20.43 35.84-22.34 21.5-3.83 10.45 30.42 15 39 1.5 2.84 18.5 1.75 20.75 1.75m-37.88 84.79c2.33-10.66 0-13.83 8.63-19.16s39.83-23.34 51.25-25.67 19.08-3 30.41 2.67 76.78 30.77 87.67 32.33c10.5 1.5 24.12-2.94 27.88-6.61"
       id="path280" />
    <path
       d="m33 226.17c-3.73-31.71 7.69-62.85 24.16-89.5 8.18-13.24 42.34-14.34 63.67-28.33 18.33-12 26.17-24.94 53.94-24.94 20.06 0 34.65 17.74 37.49 29.07 7.33 2.67 15.31-3 15.31-3 0-5.83-12.21-42.15-50.82-42.17-36 0-49.25 19-70.25 30.63-18.31 10.13-56.71 3.48-73.25 30.62-27.12 44.45-36.12 86.45-30.78 98.28m207.62-99.24c-2.29 1.07-14.47 7.27-17.12 9.08 1.5 3.33 8.33 18.5 9.33 20.66 3.47.88 39.89 1.39 40.19 1.89m-49.52-21.55 41.27.78m100.76 69.88c-.36-29.71 41-60.5 57-18m-270.41 35.84a221 221 0 0 1 3.88-22.17c1-3.81 2.7-5.82 6.66-8.15 7.13-4.19 46.84-25.67 47.84-25.67m-19.09 9.7c-2.83 6.34-1.09 23.79 7.24 25.77m-20.53-41.65c.44-14.94 20.76-26.07 25.84-25m91.29 87.17c-.5-4.59-1-33.19-.68-34.39m32.3 34.39c-2.16-3.59-11-21.84-11-25.18m30.29-12.99c3 .67 22.29 3.23 23.56 3m51.68-34c-4.16.33-36.38.58-37.6.62m-54.44-57.71c1.84-8-.92-18.91-3.54-19-8.66-.13-24.82 13.8-27.66 23.37m65.5 6.05c6.06-6 17.45-8.1 20.11-7.12 1.94.71 1 11.58-1.52 18.37m36.28 43.25c6.5-23.87 38.62-35.79 43.5-9.66"
       id="path282" />
    <path
       d="m398 164.83c3.37.38 24.5 4.61 34.5-2.62 6.47-4.68.37-9.18-6.75-5.68m-68.4 15.71c-2.62 0-9.26-.64-13.86-1.14m37.69 2.9c1.95.23 11.2 1.09 12.62 1.09m-40.56-71.88c-1.58-3.63-16-9.5-22.77-7.5 0 0-11.63-11.8-32.74-11.71m51.49 32.33c13.46 20.34-1.83 37.29-8.08 53.11m-129.54-59.04c-1.93.92-3.63 2.1-3.3 4.43s1.67 12.67 2.17 14.84c5 3.16 21 .24 22.73-3.8m-5.86-19.48a5.21 5.21 0 0 1 5.31 2.57 61.92 61.92 0 0 1 1.43 6.29m171.49 50.61c-2.37 2.06-15.92 11.89-18.81 14.23m-49.55 37.15c10.1-1.78 12.23-23.62 16.06-26.2s12.34 7.55 18.8 9c10.27 2.38 18.59-.33 22.9-4.12 3.54-3.13.5-8-9.25-4.92m-90.43-110c-4-1-20.32-1.13-29.32 10.71-31.73 11.54-32.39 66.81-9.92 83.41"
       id="path284" />
    <path
       d="m262.82 180.09c-3.06-5.55 1.13-9 1.9-10.65 2.63-5.71.09-15.26 3.17-21.11 5.41-10.27 23-8.93 31.54-3.16 17.87 12.11 30.37 7.45 38.54 1.5 7.62-5.56 11.66-5.17 9.34 2.5-1.93 6.37-6.89 11.79-6.22 15.66s-.24 8.78-3.36 11.46"
       id="path286" />
    <ellipse
       cx="309.15"
       cy="178.21"
       rx="4.31"
       ry="3.12"
       transform="matrix(.99746568 -.07114927 .07114927 .99746568 -11.899995 22.450001)"
       id="ellipse288" />
    <path
       d="m322.57 213.58c-2.77-7.93 5.66-23 11.72-23m45.52-17.58c-1.84-6.57 1.32-13.75 4.65-15.79m-119.74 65.12c3.75-5.09 21.91-8.75 27.43-4.34"
       id="path290" />
    <circle
       cx="507.97"
       cy="108.34"
       r="59.33"
       id="circle292" />
    <path
       d="m 469.59,153.58 c -8.62,-12.87 -11.12,-32 -2.76,-51.81 1.98244,-4.742817 5.34006,-8.783109 9.64,-11.6 3.3,-7.67 10.85,-10.46 14.66,-11.17 4.17,1.83 7.67,8.33 8.17,12.67 m -22.83,-1.5 c 3.30189,3.311458 15.75,6.8 22.83,1.5 m 45.57,63.14 c 2.59,-2.19 7.75,-10.44 5.1,-16.64 -2.88,-6.71 6.37,-32 -4.5,-38.84 0.62,-4.57 1.16,-11.34 -1.34,-15.33 -4.41,-1.29 -12.16,2.33 -16,4.83 -7.79,-3.66 -16.29,-6.66 -31,-4.83 m 31,4.83 c 3.97768,7.900598 15.81,9.69 17.34,10.5"
       id="path294"
       inkscape:connector-curvature="0"
       sodipodi:nodetypes="ccccccccccccccc" />
    <path
       d="m479 160.15c-4.07-5.34-2.74-9.48-1.41-13.15s-2.83-12.33-1.33-19.18c2.09-9.55 12.5-12.36 18.33-12.36 7.84 0 22.15 7.18 28.5 6.71a47.22 47.22 0 0 0 18.34-5.84c4.66-2.62 7.33 2.8 5.83 9.54-2.33 10.46 3.62 10.63 3.28 17m-17.45 25.96c3.38 5.1 18.88 13 33.38 8.13 15.59-5.28 2.75-11.15-6.63-7.46m-31.1 5.14c7.31-33 36.23-27.06 40.48-6.31m-96.22 30.09c1.86-33.21 37.21-24.57 33-1.75m14.51-25.24c1.29.44 4 2.26 4 5"
       id="path296" />
    <path
       d="m485.63 163.32c-.26 3.08 2.21 5.26 4.59 6.84 3.83 2.81 22.5 7.41 30.75.94 1.91-1.6 3.58-4.16 3.58-5.89m-49.42 31.46c3 4 18 11.6 30.93 7 11.66-4.16 1.91-9.66-7.43-5.66m-11.22-29.68c-4.69 1.83-8.56 9.94-8.72 13.53m176.39-4.34a59.32 59.32 0 1 1 47.65-22.44"
       id="path298" />
    <path
       d="m725.72 173.58c-.43-5.11-1.18-18.37-2.25-23.5-5.11.7-43.5 11.25-48 13.5a119.31 119.31 0 0 0 -7 15.5c3 5.39 19.25 37.88 20.25 40.63 4.54-1.56 36.37-17.13 38.12-17.63 0-.87.28-3.7.28-5.08"
       id="path300" />
    <path
       d="m688.72 219.71 3.41-6.96-16.66-49.17m50.87 33.88-34.31 15.49m-4.73-47.45c1-.5 15.62-5.5 17.5-6 1 2.29 3.88 11 4.51 13-1.48.78-14.78 6.74-16 7.24-1.79-3.82-6.19-14.64-6.01-14.24zm55.79 60.83c1-10.5-4.62-29.87-21.62-30.25-8.25-3.5-5.89-17.5 4-19.12 25.25 1.37 48.62 25.75 45.75 50.25"
       id="path302" />
    <path
       d="m727.12 176.46c0-1.88-2.4-4.88-7.28-4.88-17.16 0-18 26.52-4.26 28.63 4.66.71 7.93-2.13 9.92-3.64m7.75 3.75c-2.16-5.86 4.22-16.65 13.56-16.65m-3.96 35.54c4-11 23.87-10.38 27.2-6.26m-39.92 14.26c-3.16-3.84-7.72-19.38-7.7-23.15m-48.8 21.52c-1.08-4-8.08-31.91-7.33-34.91-3.83 11.41-11.12 29.58-35.5 29.58-37 0-48.5-15.15-51.75-30.92-1.08-5.25-.17-11.79 8.33-9.56 13.67-3.35 25 7.88 27.5 11.88"
       id="path304" />
    <path
       d="m671.52 171.58c-4.3-3.9-12.64-2.91-17.55 8.19-2 4.56-9.75 17.26-14.42 18.13-5.66 1.06-24.67-6.25-29.75-7.23m39.54-13.67c5.88-22.13 43.79-31.46 55-24.07m-74.28 43.68c-6 .85-13.47 17.35-6.58 23.43"
       id="path306" />
    <ellipse
       cx="520.51"
       cy="150.73"
       rx="4.04"
       ry="1.89"
       id="ellipse308" />
    <path
       d="m698.3 150.08c21.92-27-4.08-88.63-61.08-58.5a30.25 30.25 0 0 0 -21-4.16c-6.43 4.36-7.05 20.81-7 24.86"
       id="path310" />
    <path
       d="m653.81 85.14c2.5-3.33 7.05-7.64 10.55-8.81a31 31 0 0 1 16 10m-67.36 20.75c-2.38 2.25-9.73 12.75-5.73 22.75s10.41 22.63 11 28.5 8.84 11.31 12.62 13.5"
       id="path312" />
  </g>
  <g
     sodipodi:type="inkscape:box3d"
     id="g4029"
     style="fill:#333333"
     inkscape:perspectiveID="#perspective4027"
     inkscape:corner0="4.8314485 : 0.42086515 : 0 : 1"
     inkscape:corner7="3.2553813 : 0.31952007 : 0.25 : 1">
    <path
       sodipodi:type="inkscape:box3dside"
       id="path4031"
       style="fill:#353564;fill-rule:evenodd;stroke:none;stroke-linejoin:round"
       inkscape:box3dsidetype="6"
       d="m 66.23226,60.642329 v 17.379057 l 29.032054,1.928959 V 63.285718 Z"
       points="66.23226,78.021386 95.264314,79.950345 95.264314,63.285718 66.23226,60.642329 " />
    <path
       sodipodi:type="inkscape:box3dside"
       id="path4041"
       style="fill:#e9e9ff;fill-rule:evenodd;stroke:none;stroke-linejoin:round"
       inkscape:box3dsidetype="11"
       d="M 95.264314,63.285718 128.58956,41.716194 V 64.210422 L 95.264314,79.950345 Z"
       points="128.58956,41.716194 128.58956,64.210422 95.264314,79.950345 95.264314,63.285718 " />
    <path
       sodipodi:type="inkscape:box3dside"
       id="path4033"
       style="fill:#4d4d9f;fill-rule:evenodd;stroke:none;stroke-linejoin:round"
       inkscape:box3dsidetype="5"
       d="M 66.23226,60.642329 90.762727,36.826583 128.58956,41.716194 95.264314,63.285718 Z"
       points="90.762727,36.826583 128.58956,41.716194 95.264314,63.285718 66.23226,60.642329 " />
    <path
       sodipodi:type="inkscape:box3dside"
       id="path4039"
       style="fill:#afafde;fill-rule:evenodd;stroke:none;stroke-linejoin:round"
       inkscape:box3dsidetype="13"
       d="M 66.23226,78.021386 90.762727,60.642327 128.58956,64.210422 95.264314,79.950345 Z"
       points="90.762727,60.642327 128.58956,64.210422 95.264314,79.950345 66.23226,78.021386 " />
    <path
       sodipodi:type="inkscape:box3dside"
       id="path4037"
       style="fill:#d7d7ff;fill-rule:evenodd;stroke:none;stroke-linejoin:round"
       inkscape:box3dsidetype="14"
       d="m 90.762727,36.826583 v 23.815744 l 37.826833,3.568095 V 41.716194 Z"
       points="90.762727,60.642327 128.58956,64.210422 128.58956,41.716194 90.762727,36.826583 " />
    <path
       sodipodi:type="inkscape:box3dside"
       id="path4035"
       style="fill:#8686bf;fill-rule:evenodd;stroke:none;stroke-linejoin:round"
       inkscape:box3dsidetype="3"
       d="M 66.23226,60.642329 90.762727,36.826583 V 60.642327 L 66.23226,78.021386 Z"
       points="90.762727,36.826583 90.762727,60.642327 66.23226,78.021386 66.23226,60.642329 " />
  </g>
  <g
     sodipodi:type="inkscape:box3d"
     id="g4043"
     style="fill:#333333"
     inkscape:perspectiveID="#perspective4057"
     inkscape:corner0="4.6909318 : -0.22568266 : 0 : 1"
     inkscape:corner7="3.9202847 : -0.53088192 : 0.25 : 1">
    <path
       sodipodi:type="inkscape:box3dside"
       id="path4045"
       style="fill:#353564;fill-rule:evenodd;stroke:none;stroke-linejoin:round"
       inkscape:box3dsidetype="6"
       d="m 59.690802,188.65568 v 53.62904 l 29.649912,-4.26486 v -51.37228 z"
       points="59.690802,242.28472 89.340714,238.01986 89.340714,186.64758 59.690802,188.65568 " />
    <path
       sodipodi:type="inkscape:box3dside"
       id="path4053"
       style="fill:#afafde;fill-rule:evenodd;stroke:none;stroke-linejoin:round"
       inkscape:box3dsidetype="13"
       d="m 59.690802,242.28472 10.629871,15.87394 33.555337,-5.6681 -14.535296,-14.4707 z"
       points="70.320673,258.15866 103.87601,252.49056 89.340714,238.01986 59.690802,242.28472 " />
    <path
       sodipodi:type="inkscape:box3dside"
       id="path4055"
       style="fill:#e9e9ff;fill-rule:evenodd;stroke:none;stroke-linejoin:round"
       inkscape:box3dsidetype="11"
       d="m 89.340714,186.64758 14.535296,6.81349 v 59.02949 l -14.535296,-14.4707 z"
       points="103.87601,193.46107 103.87601,252.49056 89.340714,238.01986 89.340714,186.64758 " />
    <path
       sodipodi:type="inkscape:box3dside"
       id="path4047"
       style="fill:#4d4d9f;fill-rule:evenodd;stroke:none;stroke-linejoin:round"
       inkscape:box3dsidetype="5"
       d="m 59.690802,188.65568 10.629871,7.47421 33.555337,-2.66882 -14.535296,-6.81349 z"
       points="70.320673,196.12989 103.87601,193.46107 89.340714,186.64758 59.690802,188.65568 " />
    <path
       sodipodi:type="inkscape:box3dside"
       id="path4051"
       style="fill:#d7d7ff;fill-rule:evenodd;stroke:none;stroke-linejoin:round"
       inkscape:box3dsidetype="14"
       d="m 70.320673,196.12989 v 62.02877 l 33.555337,-5.6681 v -59.02949 z"
       points="70.320673,258.15866 103.87601,252.49056 103.87601,193.46107 70.320673,196.12989 " />
    <path
       sodipodi:type="inkscape:box3dside"
       id="path4049"
       style="fill:#8686bf;fill-rule:evenodd;stroke:none;stroke-linejoin:round"
       inkscape:box3dsidetype="3"
       d="m 59.690802,188.65568 10.629871,7.47421 v 62.02877 L 59.690802,242.28472 Z"
       points="70.320673,196.12989 70.320673,258.15866 59.690802,242.28472 59.690802,188.65568 " />
  </g>
</svg>
